<?xml version="1.0" standalone="no"?>
<!DOCTYPE svg PUBLIC "-//W3C//DTD SVG 20010904//EN"
 "http://www.w3.org/TR/2001/REC-SVG-20010904/DTD/svg10.dtd">
<svg version="1.0" xmlns="http://www.w3.org/2000/svg"
 width="729.000000pt" height="1438.000000pt" viewBox="0 0 729.000000 1438.000000"
 preserveAspectRatio="xMidYMid meet">

<g transform="translate(0.000000,1438.000000) scale(0.100000,-0.100000)"
fill="#000000" stroke="none">
<path d="M1715 13988 c-3 -13 -358 -1553 -790 -3423 -431 -1870 -787 -3410
-790 -3422 l-5 -23 454 0 454 0 16 73 c9 39 108 470 219 957 l203 885 611 3
611 2 6 -25 c4 -14 101 -443 216 -953 177 -789 585 -2574 1593 -6987 l192
-840 347 -3 347 -2 10 37 c13 50 488 1944 941 3748 458 1826 770 3065 776
3088 5 16 -21 17 -449 17 l-455 0 -34 -137 c-390 -1548 -1133 -4480 -1137
-4485 -4 -4 -188 790 -410 1765 -221 975 -805 3536 -1296 5692 -491 2156 -899
3949 -907 3985 l-14 65 -352 3 -352 2 -5 -22z m559 -3225 c106 -455 191 -831
189 -835 -2 -5 -177 -8 -389 -8 -355 0 -384 1 -384 17 0 9 86 385 190 835 105
449 190 820 190 824 0 37 38 -116 204 -833z"/>
</g>
</svg>
